v -11.9331 70 7.68772
v -9.59966 70 6.97477
v -10.7523 70 9.81728
v -9.66801 70 -13.9405
v -10.4125 70 -10.2488
v -12.1328 70 -11.826
v 4.48667 70 7.97142
v 7.05958 70 9.76498
v 4.79777 70 10.3784
v -8.48552 70 -11.6377
v 5.40257 70 -12.6526
v 4.56823 70 -10.1103
v 2.55505 70 -13.3794
v 6.55525 70 5.35307
v 8.7645 70 5.12846
v 8.78877 70 7.22377
v -5.51864 70 -3.13873
v -3.10275 70 -3.24792
v -3.07763 70 -0.865215
v 3.84794 70 -3.52664
v 1.59903 70 -3.43713
v 3.86106 70 -5.70526
v -2.74572 70 6.24553
v -0.389709 70 6.09009
v -2.64102 70 8.62062
v 2.13755 70 8.30056
v -0.262476 70 8.51818
v 1.96628 70 5.88509
v 6.72257 70 7.57831
v 4.28895 70 5.62868
v 4.05818 70 -7.85805
v 5.89935 70 -5.70133
v -5.61255 70 -10.2048
v -5.4687 70 -7.8636
v -7.77863 70 -9.67846
v 6.00869 70 -7.53756
v 7.36832 70 -7.23587
v -7.98287 70 -3.05895
v -8.01776 70 -0.58766
v -10.6698 70 -0.454042
v 1.6389 70 -5.73475
v -0.699205 70 -5.71749
v 1.79482 70 -8.07896
v 13.4885 70 -2.72753
v 10.8342 70 -2.197
v 12.7373 70 -5.40692
v 5.28503 70 12.9495
v 7.7158 70 12.0104
v 5.9658 70 15.8385
v 16.5767 70 -3.33027
v 15.6123 70 -6.50126
v 9.00227 70 9.09294
v -14.5533 70 8.73276
v -8.39673 70 14.6745
v -10.7192 70 13.0988
v -7.49786 70 12.4877
v -3.00087 70 1.51395
v -0.624874 70 1.35205
v -2.88093 70 3.88398
v -13.3417 70 -3.2083
v -12.6988 70 -5.94293
v -10.2076 70 -5.53388
v 4.02818 70 0.994103
v 4.14765 70 3.30524
v 1.7166 70 1.18275
v -3.07474 70 -8.06052
v -5.41989 70 1.68528
v -5.26023 70 4.06483
v -7.66901 70 4.30247
v 10.9633 70 5.06571
v 10.6658 70 7.09549
v 13.2873 70 5.29504
v 13.7197 70 2.76187
v 12.5412 70 7.55347
v 10.3701 70 8.53908
v 2.66078 70 13.5706
v 3.09604 70 16.6746
v -0.0977609 70 13.8307
v 7.71768 70 -5.88861
v 9.4862 70 -6.64222
v 8.11693 70 -3.97491
v -0.725312 70 -3.35066
v -3.08925 70 -5.63679
v -0.290406 70 -16.9695
v 3.09629 70 -16.6746
v -0.381927 70 -13.6149
v 6.01011 70 -3.67367
v -10.1571 70 4.66497
v -7.90983 70 1.88915
v -6.94596 70 -15.5121
v -3.56491 70 -16.6186
v -6.08286 70 -12.6831
v -13.5781 70 -0.321141
v -10.5326 70 2.15655
v 11.9911 70 -11.9536
v 9.9512 70 -9.89223
v 9.45837 70 -14.0616
v 6.60679 70 -15.6303
v -3.04579 70 16.6799
v -5.83799 70 15.8801
v -2.75772 70 13.7052
v -0.516782 70 3.71181
v 1.63476 70 -1.13618
v -0.698265 70 -1
v -4.9294 70 8.64952
v 6.44514 70 3.07714
v 11.5549 70 -7.84355
v 8.37866 70 -8.28131
v -0.621013 70 -8.1475
v -0.504899 70 -10.733
v -6.98362 70 10.6019
v -4.95009 70 10.8904
v -5.26092 70 13.2408
v -5.50848 70 -0.726583
v -3.28741 70 -13.3777
v -3.1199 70 -10.594
v 6.32691 70 0.778925
v -2.62639 70 11.0694
v 11.0025 70 12.8438
v 9.79068 70 10.844
v 13.0668 70 10.7787
v -7.70713 70 -7.66771
v -7.84448 70 -5.44544
v -9.73665 70 -7.68322
v -0.156701 70 11.0615
v 10.2937 70 -4.55526
v 11.1355 70 2.74394
v 13.8059 70 0.0241825
v 11.1084 70 0.276846
v -13.3939 70 2.52616
v -16.9069 70 -0.148351
v -11.7226 70 -8.32776
v -16.6378 70 3.04308
v -12.827 70 5.22616
v 8.44636 70 -1.78186
v 6.17628 70 -1.4917
v -8.95961 70 8.95544
v -9.35011 70 11.4335
v 6.70896 70 -9.35487
v -0.137357 70 16.9856
v 2.35985 70 10.8278
v 2.1033 70 -10.5754
v -8.43112 70 10.3303
v -10.5505 70 -3.06379
v 7.88027 70 -11.4903
v 8.65812 70 0.536328
v 1.82844 70 3.52122
v 15.9249 70 5.79917
v 3.92179 70 -1.2901
v -9.30927 70 -9.20349
v 16.9069 70 -0.214408
v 16.6502 70 2.9844
v 14.0447 70 -9.43285
v -5.48027 70 -5.52114
v -16.5395 70 -3.50524
v 11.4422 70 9.42882
v -7.05536 70 8.69948
v -7.34877 70 6.5911
v -5.07103 70 6.38774
v -15.824 70 6.02579
v 8.75083 70 2.87147
v -15.5231 70 -6.70169
v 14.7694 70 8.39453
v 8.72793 70 14.4833
v -12.7662 70 11.1925
v -14.0423 70 -9.43613
f 160 134 1 53
f 3 1 2 137
f 69 158 2 88
f 134 88 2 1
f 53 1 3 165
f 5 6 4 10
f 92 10 4 90
f 124 132 5 150
f 6 5 132 166
f 8 9 7 29
f 28 30 7 26
f 7 9 141 26
f 8 52 120 48
f 9 8 48 47
f 9 47 76 141
f 33 35 10 92
f 150 5 10 35
f 11 13 85 98
f 11 98 97 145
f 11 145 139 12
f 13 11 12 142
f 12 31 43 142
f 14 15 16 29
f 15 70 71 16
f 15 14 106 161
f 15 161 127 70
f 75 52 16 71
f 17 18 19 114
f 17 114 39 38
f 17 154 83 18
f 17 38 123 154
f 19 18 82 104
f 32 87 20 22
f 103 21 20 149
f 22 20 21 41
f 21 82 42 41
f 68 59 23 159
f 102 24 23 59
f 23 25 105 159
f 25 23 24 27
f 25 27 125 118
f 28 26 27 24
f 27 26 141 125
f 28 24 102 147
f 29 7 30 14
f 52 8 29 16
f 30 64 106 14
f 147 64 30 28
f 32 22 31 36
f 41 43 31 22
f 139 36 31 12
f 32 36 37 79
f 66 34 33 116
f 115 116 33 92
f 35 33 34 122
f 34 66 83 154
f 35 122 124 150
f 139 108 37 36
f 38 39 40 144
f 62 123 38 144
f 60 144 40 93
f 40 39 89 94
f 43 41 42 109
f 43 109 110 142
f 44 128 129 45
f 46 44 45 126
f 45 129 146 135
f 46 51 50 44
f 46 126 80 107
f 47 49 77 76
f 49 47 48 164
f 48 120 119 164
f 128 44 50 151
f 51 46 107 153
f 52 75 156 120
f 54 56 113 100
f 56 54 55 138
f 143 111 56 138
f 104 58 57 19
f 57 67 114 19
f 59 57 58 102
f 58 104 103 65
f 58 65 147 102
f 67 57 59 68
f 60 61 62 144
f 162 61 60 155
f 61 132 124 62
f 63 117 106 64
f 65 63 64 147
f 65 103 149 63
f 66 116 110 109
f 67 68 69 89
f 69 68 159 158
f 73 72 70 127
f 74 71 70 72
f 73 127 129 128
f 148 72 73 152
f 151 152 73 128
f 75 71 74 156
f 74 163 121 156
f 148 163 74 72
f 78 76 77 140
f 78 140 99 101
f 141 76 78 125
f 87 32 79 81
f 79 37 108 80
f 81 79 80 126
f 83 42 82 18
f 103 104 82 21
f 83 66 109 42
f 86 84 85 13
f 86 115 91 84
f 116 115 86 110
f 86 13 142 110
f 87 81 135 136
f 87 136 149 20
f 89 69 88 94
f 130 94 88 134
f 114 67 89 39
f 92 90 91 115
f 93 40 94 130
f 155 60 93 131
f 97 95 96 145
f 96 108 139 145
f 153 107 96 95
f 101 99 100 113
f 101 118 125 78
f 111 157 105 112
f 105 25 118 112
f 158 159 105 157
f 106 117 146 161
f 108 96 107 80
f 111 112 113 56
f 118 101 113 112
f 117 136 135 146
f 117 63 149 136
f 121 119 120 156
f 154 123 122 34
f 124 122 123 62
f 135 81 126 45
f 146 129 127 161
f 131 93 130 133
f 132 61 162 166
f 133 130 134 160
f 138 3 137 143
f 158 157 137 2
f 165 3 138 55
f 143 137 157 111
