v 0.381396 -10.4367 88.7648
v 1.97134 -10.6004 89.1758
v 1.66771 -11.5597 90.4511
v -1.25506 -10.8926 90.3669
v -1.14988 -10.342 88.7951
v 0.467787 -10.7507 87.2532
v 2.43463 -17.4788 89.8914
v 5.3918 -17.9947 88.2338
v 3.29503 -18.5315 88.1278
v 2.52233 -12.8129 91.2477
v 1.55167 -14.2561 91.4362
v 1.46211 -12.7912 91.4132
v -3.93232 -10.2767 90.596
v -3.23009 -11.9526 91.7338
v -4.71974 -11.7488 91.8123
v -4.10256 -13.5687 91.9686
v -2.13727 -14.1202 91.799
v -2.91382 -10.3919 87.2687
v -1.52282 -11.604 85.8164
v -1.27074 -10.7006 87.239
v -4.47731 -9.89073 87.2639
v -5.22028 -10.6456 86.0896
v -6.17636 -11.7524 85.1877
v -3.4272 -11.2722 86.0096
v -8.13002 -10.634 85.3948
v -9.50665 -11.9004 84.9147
v -7.94726 -11.9661 92.3793
v -5.84088 -12.1602 92.2558
v -6.04068 -12.9077 92.1873
v -12.0833 -14.4116 89.484
v -10.1091 -12.7499 91.8256
v -8.74627 -15.7917 90.1215
v -5.81948 -16.8163 90.2211
v -2.98835 -17.512 90.0893
v -3.20149 -18.6883 88.3426
v -3.94695 -9.59928 88.726
v 4.59233 -16.7891 89.9455
v -1.86642 -13.0041 84.611
v -2.27022 -14.8672 84.1061
v 0.450065 -15.1358 84.0333
v -11.6872 -14.9463 88.0284
v -13.7257 -13.0327 89.3194
v -6.86627 -9.84478 86.2229
v -5.99837 -9.29796 87.425
v -8.22732 -8.98915 86.3305
v 4.2373 -12.7483 91.0832
v 5.40651 -14.1533 90.8576
v 3.0086 -13.7595 91.0961
v -2.63927 -10.1425 88.8235
v -4.07169 -12.5253 84.9598
v -4.82753 -14.1828 84.3983
v -9.15798 -16.63 88.2716
v 7.37832 -16.9441 88.5692
v 3.73636 -15.1841 90.826
v 2.40559 -11.4268 85.6038
v 2.30882 -10.4678 87.4693
v -5.25219 -9.10277 88.7835
v -4.72324 -10.1115 91.0062
v 3.04351 -11.9117 90.7625
v 3.74001 -10.7714 89.8878
v 0.209244 -11.2556 90.2903
v -2.68398 -10.5951 90.5159
v -2.69978 -16.9779 84.5011
v -5.6134 -16.0773 84.6147
v 0.513493 -17.428 84.2567
v -8.30603 -14.899 84.7979
v -7.30222 -13.2517 84.4319
v -10.7826 -13.3293 85.0678
v 0.0680126 -18.9304 88.129
v -0.180494 -18.0888 89.9858
v -13.0174 -11.4988 85.6535
v -11.7881 -10.456 85.2963
v 3.1774 -15.1083 83.6361
v 3.79076 -17.101 84.1099
v 5.81963 -14.951 83.516
v 1.8796 -15.9255 90.9995
v -0.30409 -16.4083 91.2571
v 5.47695 -11.4412 90.6687
v 7.07589 -12.938 90.8155
v 6.45632 -15.6673 90.0192
v -2.62543 -15.9114 91.2985
v 0.443739 -11.7386 85.8043
v 8.99908 -11.5982 90.6281
v 6.81108 -9.53368 89.8227
v -0.0311222 -12.6199 91.2844
v -5.04122 -15.2708 91.5067
v -11.6497 -14.4777 86.3233
v -10.0429 -9.18261 85.6321
v 0.61979 -18.8423 85.9896
v 5.0308 -18.5138 85.8789
v 9.02926 -15.6753 88.6852
v 8.02541 -17.4762 86.3407
v -6.18711 -17.5893 86.0867
v -3.07774 -18.61 86.1444
v -1.6442 -12.3379 91.3755
v -0.222021 -14.3644 91.5518
v -13.3286 -13.6027 88.0014
v -6.22138 -17.7716 88.3246
v 5.05354 -13.032 83.8084
v 2.74672 -13.1444 84.3059
v 0.431566 -13.209 84.5795
v -9.10532 -16.3285 86.2228
v 8.23319 -14.4553 90.0559
v 5.68353 -18.3467 85.5077
v -14.0958 -12.3274 86.5653
v 4.41525 -11.1853 85.6258
v 10.0815 -13.2027 89.8266
v 4.5861 -9.73448 88.1773
v -7.49255 -14.2485 91.6367
v -7.48397 -8.53076 87.581
v 6.67089 -17.547 84.81
v 6.26856 -16.2067 83.8318
v 11.1106 -15.3405 87.5615
v 9.55717 -16.5508 87.2749
v 10.7755 -14.5307 88.5572
v -15.6393 -11.1871 87.975
v -7.00476 -8.1913 88.2521
v 4.5861 -9.73448 88.1773
v -7.94726 -11.9661 92.3793
f 1 2 3 61
f 4 5 1 61
f 20 6 1 5
f 2 1 6 56
f 2 60 59 3
f 2 56 108 60
f 3 59 10 12
f 3 12 85 61
f 14 62 4 95
f 49 5 4 62
f 5 49 18 20
f 55 56 6 82
f 8 9 7 37
f 8 104 90 9
f 9 69 70 7
f 11 12 10 48
f 11 48 54 76
f 11 76 77 96
f 12 11 96 85
f 14 15 13 62
f 13 36 49 62
f 13 58 57 36
f 17 16 14 95
f 15 14 16 29
f 58 13 15 28
f 77 81 17 96
f 17 95 85 96
f 86 16 17 81
f 19 20 18 24
f 18 21 22 24
f 36 21 18 49
f 19 24 50 38
f 20 19 82 6
f 43 22 21 44
f 57 44 21 36
f 25 23 22 43
f 24 22 23 50
f 23 25 26 67
f 51 50 23 67
f 72 26 25 88
f 29 119 28 15
f 29 109 31 119
f 29 16 86 109
f 30 32 52 41
f 32 30 31 109
f 32 33 98 52
f 33 34 35 98
f 81 34 33 86
f 33 32 109 86
f 77 70 34 81
f 70 69 35 34
f 89 94 35 69
f 47 80 37 54
f 53 8 37 80
f 76 54 37 7
f 38 39 40 101
f 82 19 38 101
f 50 51 39 38
f 63 65 40 39
f 40 73 100 101
f 42 30 41 97
f 41 87 105 97
f 43 45 88 25
f 45 43 44 110
f 44 57 117 110
f 46 59 60 78
f 48 46 47 54
f 47 46 78 79
f 47 79 103 80
f 48 10 59 46
f 51 64 63 39
f 66 64 51 67
f 87 41 52 102
f 93 102 52 98
f 53 80 103 91
f 53 92 104 8
f 101 100 55 82
f 55 106 108 56
f 60 108 84 78
f 95 4 61 85
f 63 64 93 94
f 65 74 73 40
f 65 89 90 74
f 65 63 94 89
f 87 102 66 68
f 93 64 66 102
f 68 66 67 26
f 72 71 68 26
f 90 89 69 9
f 70 77 76 7
f 87 68 71 105
f 99 100 73 75
f 75 73 74 112
f 74 90 111 112
f 78 84 83 79
f 79 83 107 103
f 92 53 91 114
f 113 114 91 115
f 94 93 98 35
f 97 105 116 42
f 100 99 106 55
f 103 107 115 91
